<svg width="681" height="681" viewBox="0 0 681 681" fill="none" xmlns="http://www.w3.org/2000/svg">
  <svg id="patternId" width="100%" height="100%" xmlns="http://www.w3.org/2000/svg">
    <defs>
      <pattern id="a" patternUnits="userSpaceOnUse" width="40" height="40" patternTransform="scale(1) rotate(90)">
        <rect x="0" y="0" width="100%" height="100%" fill="hsla(0, 0%, 0%, 1)"/>
        <path d="M45.69 13.342c-1.677.945-3.557 1.6-5.48 1.588-1.922-.012-3.795-.691-5.462-1.653-1.668-.962-3.156-2.202-4.637-3.435-1.48-1.232-2.97-2.47-4.641-3.427-1.67-.957-3.547-1.628-5.47-1.628-1.923 0-3.8.67-5.47 1.628-1.67.956-3.161 2.195-4.641 3.427-1.48 1.233-2.97 2.473-4.637 3.435-1.667.962-3.54 1.641-5.463 1.653-1.922.012-3.802-.643-5.478-1.588v13.316c1.676-.945 3.556-1.6 5.478-1.588 1.923.012 3.796.691 5.463 1.653 1.668.962 3.156 2.202 4.637 3.435 1.48 1.232 2.97 2.47 4.641 3.427 1.67.957 3.547 1.628 5.47 1.628 1.923 0 3.8-.67 5.47-1.628 1.67-.956 3.161-2.195 4.641-3.427 1.48-1.233 2.97-2.473 4.637-3.435 1.667-.962 3.54-1.641 5.463-1.653 1.922-.012 3.802.643 5.478 1.588z" stroke-width="1" stroke="none" fill="hsla(258.5,59.4%,59.4%,1)"/>
      </pattern>
    </defs>
    <rect width="800%" height="800%" transform="translate(0,0)" fill="url(#a)"/>
  </svg>
  <svg id="patternId" width="100%" height="100%" xmlns="http://www.w3.org/2000/svg">
    <defs>
      <pattern id="b" patternUnits="userSpaceOnUse" width="40" height="40" patternTransform="scale(1) rotate(180)">
        <rect x="0" y="0" width="100%" height="100%" fill="hsla(0, 0%, 0%, 1)"/>
        <path d="M45.69 13.342c-1.677.945-3.557 1.6-5.48 1.588-1.922-.012-3.795-.691-5.462-1.653-1.668-.962-3.156-2.202-4.637-3.435-1.48-1.232-2.97-2.47-4.641-3.427-1.67-.957-3.547-1.628-5.47-1.628-1.923 0-3.8.67-5.47 1.628-1.67.956-3.161 2.195-4.641 3.427-1.48 1.233-2.97 2.473-4.637 3.435-1.667.962-3.54 1.641-5.463 1.653-1.922.012-3.802-.643-5.478-1.588v13.316c1.676-.945 3.556-1.6 5.478-1.588 1.923.012 3.796.691 5.463 1.653 1.668.962 3.156 2.202 4.637 3.435 1.48 1.232 2.97 2.47 4.641 3.427 1.67.957 3.547 1.628 5.47 1.628 1.923 0 3.8-.67 5.47-1.628 1.67-.956 3.161-2.195 4.641-3.427 1.48-1.233 2.97-2.473 4.637-3.435 1.667-.962 3.54-1.641 5.463-1.653 1.922-.012 3.802.643 5.478 1.588z" stroke-width="1" stroke="none" fill="hsla(258.5,59.4%,59.4%,1)"/>
      </pattern>
    </defs>
    <rect width="800%" height="800%" transform="translate(0,0)" fill="url(#a)"/>
  </svg>
  <filter id="dropShadow" x="-20%" y="-20%" width="140%" height="140%">
    <feGaussianBlur in="SourceAlpha" stdDeviation="5"/>
<!--Adjust the blur for the shadow-->
    <feOffset dx="1" dy="1" result="offsetblur"/>
    <feFlood flood-color="rgba(0,0,0,0.5)"/>
<!--Shadow color and opacity-->
    <feComposite in2="offsetblur" operator="in"/>
    <feMerge>
      <feMergeNode/>
      <feMergeNode in="SourceGraphic"/>
    </feMerge>
  </filter>
  <rect width="681" height="681" fill="url(#a)"/>
  <g clip-path="url(#clip0_9_64)" filter="url(#dropShadow)">
    <path d="M341 255C341 301.944 302.945 340 256 340V255H341Z" fill="url(#b)"/>
    <path d="M171 255C171 301.944 209.055 340 256 340V255H171Z" fill="url(#b)"/>
    <path d="M341 255C341 301.944 379.055 340 426 340V255H341Z" fill="url(#b)"/>
    <path d="M256.421 255.314H171.421V170.314H256.421V255.314Z" fill="url(#b)"/>
    <path d="M256.182 255.314H341.182C341.182 208.369 303.126 170.314 256.182 170.314V255.314Z" fill="url(#b)"/>
    <path d="M510.824 255C510.824 301.944 472.768 340 425.824 340V255H510.824Z" fill="url(#b)"/>
    <path d="M425.707 255.359H340.707C340.707 208.479 378.828 170.359 425.707 170.359V255.359Z" fill="url(#b)"/>
    <path d="M425.824 255.359H510.824C510.824 208.415 472.768 170.359 425.824 170.359V255.359Z" fill="url(#b)"/>
    <path d="M255.941 425.074H170.941V340.074H255.941V425.074Z" fill="url(#b)"/>
    <path d="M255.941 509.6H170.941V424.6H255.941V509.6Z" fill="url(#b)"/>
    <path d="M340.941 425.074H255.941V340.074H340.941V425.074Z" fill="url(#b)"/>
    <path d="M340.941 509.6H255.941V424.6H340.941V509.6Z" fill="url(#b)"/>
    <path d="M425.941 425.074H340.941V340.074H425.941V425.074Z" fill="url(#b)"/>
    <path d="M425.941 509.6H340.941V424.6H425.941V509.6Z" fill="url(#b)"/>
    <path d="M510.941 425.074H425.941V340.074H510.941V425.074Z" fill="url(#b)"/>
    <path d="M510.941 509.6H425.941V424.6H510.941V509.6Z" fill="url(#b)"/>
  </g>
  <defs>
    <clipPath id="clip0_9_64">
      <rect width="681" height="681" fill="white"/>
    </clipPath>
  </defs>
</svg>
