<svg width="681" height="681" viewBox="0 0 681 681" fill="none" xmlns="http://www.w3.org/2000/svg">
    <defs>
    <!-- Define the linear gradient -->
    <linearGradient id="customGradient" x1="0%" y1="0%" x2="0%" y2="70%">
      <!-- Start with white at 0% -->
      <stop offset="0%" stop-color="#fff" />
      <!-- Transition to dark gray at 10% -->
      <stop offset="20%" stop-color="#fff" />
      <!-- Continue with dark gray below 10% -->
      <stop offset="100%" stop-color="#888" />
    </linearGradient>
  </defs>
  <filter id="dropShadow" x="-20%" y="-20%" width="140%" height="140%">
    <feGaussianBlur in="SourceAlpha" stdDeviation="5"/>
<!--Adjust the blur for the shadow-->
    <feOffset dx="1" dy="1" result="offsetblur"/>
    <feFlood flood-color="rgba(0,0,0,1)"/>
<!--Shadow color and opacity-->
    <feComposite in2="offsetblur" operator="in"/>
    <feMerge>
      <feMergeNode/>
      <feMergeNode in="SourceGraphic"/>
    </feMerge>
  </filter>

  <rect width="681" height="681" fill="#000"/>
  <g clip-path="url(#clip0_9_64)" filter="url(#dropShadow)">
    <path d="M341 255C341 301.944 302.945 340 256 340V255H341Z" fill="#888"/>
    <path d="M171 255C171 301.944 209.055 340 256 340V255H171Z" fill="#888"/>
    <path d="M256.421 255.314H171.421V170.314H256.421V255.314Z" fill="#888"/>
    <path d="M256.182 255.314H341.182C341.182 208.369 303.126 170.314 256.182 170.314V255.314Z" fill="#888"/>
    
    <path d="M341 255C341 301.944 379.055 340 426 340V255H341Z" fill="#888"/>
    <path d="M510.824 255C510.824 301.944 472.768 340 425.824 340V255H510.824Z" fill="#888"/>
    <path d="M425.707 255.359H340.707C340.707 208.479 378.828 170.359 425.707 170.359V255.359Z" fill="#888"/>
    <path d="M425.824 255.359H510.824C510.824 208.415 472.768 170.359 425.824 170.359V255.359Z" fill="#888"/>
    
    <path d="M255.941 425.074H170.941V340.074H255.941V425.074Z" fill="url(#customGradient)"/>
    <path d="M340.941 425.074H255.941V340.074H340.941V425.074Z" fill="url(#customGradient)"/>
    <path d="M425.941 425.074H340.941V340.074H425.941V425.074Z" fill="url(#customGradient)"/>
    <path d="M510.941 425.074H425.941V340.074H510.941V425.074Z" fill="url(#customGradient)"/>
    <path d="M255.941 509.6H170.941V424.6H255.941V509.6Z" fill="#888"/>
    <path d="M340.941 509.6H255.941V424.6H340.941V509.6Z" fill="#888"/>
    <path d="M425.941 509.6H340.941V424.6H425.941V509.6Z" fill="#888"/>
    <path d="M510.941 509.6H425.941V424.6H510.941V509.6Z" fill="#888"/>
  </g>
  <defs>
    <clipPath id="clip0_9_64">
      <rect width="681" height="681" fill="white"/>
    </clipPath>
  </defs>
</svg>
